<?xml version="1.0" encoding="utf-8"?>
<!-- Generator: Adobe Illustrator 15.1.0, SVG Export Plug-In . SVG Version: 6.00 Build 0)  -->
<!DOCTYPE svg PUBLIC "-//W3C//DTD SVG 1.1//EN" "http://www.w3.org/Graphics/SVG/1.1/DTD/svg11.dtd">
<svg version="1.1" id="Layer_1" xmlns="http://www.w3.org/2000/svg" xmlns:xlink="http://www.w3.org/1999/xlink" x="0px" y="0px"
	 width="464px" height="410px" viewBox="0 0 464 410" enable-background="new 0 0 464 410" xml:space="preserve">
<path fill="#212121" fill-rule="evenodd" clip-rule="evenodd" d="M364,79c0.7089844,6.2583008-9.8857422,7.3276367-16,10
	c-18.8496094,8.2387695-43.0419922,19.2426758-61,29c15.1806641-4.8012695,25.2304688-10.6240234,41-16
	c-12.0527344,9.2802734-29.6503906,13.015625-43,21c16.6376953,3.8564453,28.140625,2.9838867,37,5
	c-0.1611328-1.171875-1.8232422-0.8432617-3-1c13.03125,1.3061523,31.3818359,5.9482422,48,7
	c-1.2324219-1.434082-3.4384766-1.8945313-6-2c25.3642578,2.4892578,64.0712891,12.7402344,81,33
	c12.9140625,15.4550781,20.4755859,43.2094727,7,61c-12.7753906,12.4091797-39.0898438,44.3291016-61,24
	c-13.4160156-12.4472656-9.5175781-41.6987305-2-60c-12.1386719,1.8618164-17.9492188,10.0507813-23,19
	c-4.3320313-4.8696289-2.6572266-18.6142578-1-28c0.8222656-4.65625,3.7744141-8.6254883,4-12
	c2.4335938,3.9038086,4.3564453,2.0219727,8,0c1.953125,2.246582,0.8710938,7.5219727,0,10
	c13.4511719-1.2592773,33.4111328-13.3793945,40-6c-0.7089844,7.0556641-6.484375,4.9648438-11,9
	c-14.3212891,12.7988281-14.8652344,53.5683594,0,61c17.5683594-1.5058594,37.1748047-10.9902344,42-26
	c8.3789063-26.0634766-15.5576172-47.4628906-33-57c13.5126953,3.1577148,24.9609375,17.0366211,35,27
	c-2.0576172-12.1049805-11.2021484-21.1308594-23-30c-33.1689453-24.9350586-99.7158203-28.046875-148-26
	c0.7451172,2.2553711,5.609375,0.3911133,8,1c1.5419922,4.2084961-5.1748047,0.1586914-5,3
	c2.2871094,2.4228516,3.5429688,1.2075195,7,1c-0.8681641,19.8881836-0.0898438,64.6606445,2,95
	c1.5283203,22.1826172,9.0957031,34.5761719-9,42c-3.7373047-43.7744141-4.75-93.6772461-7-141
	c-10.9433594-0.9370117-22.4394531,6.2460938-31,11c-9.9848633,5.5449219-19.2709961,7.0605469-29,5
	c3.4980469-2.9770508,4.0273438-3.5063477,5-5c2.4555664-3.4331055-4.9858398-3.8837891-4-9
	c20.7495117-5.9169922,39.1396484-14.1938477,59-21c-1.0390625-11.7646484,0.03125-16.4169922,3-25
	c2.2666016,4.0131836,3.6337891-1.953125,4,2c2.0771484-0.2568359,0.2734375-4.3935547,2-5
	c8.4570313,0.2099609,3.8398438,13.4931641,5,21C310.9472656,99.9326172,336.4033203,85.7480469,364,79z M297,127
	C297.6552734,127.6552734,296.5810547,126.5805664,297,127L297,127z M410,251c-10.7597656,2.4570313-16.4804688-7.9648438-24-12
	C387.9326172,247.9414063,399.8984375,256.8183594,410,251z"/>
<path fill="#212121" fill-rule="evenodd" clip-rule="evenodd" d="M338,98C337.8984375,96.7915039,339.4541016,97.3852539,338,98L338,98z"/>
<path fill="#212121" fill-rule="evenodd" clip-rule="evenodd" d="M338,98c-1.4023438,1.5976563-3.4453125,2.5546875-6,3
	C332.9082031,98.9086914,334.9511719,97.9511719,338,98z"/>
<path fill="#212121" fill-rule="evenodd" clip-rule="evenodd" d="M15,279C16.4536133,278.3847656,14.8984375,277.7910156,15,279
	c-3.2944336,1.6875-6.3930664,0.5927734-10,0c-1.3925781-5.171875,1.34375-6.0849609,0-13
	c13.1494141-19.8505859,28.1606445-37.8388672,45-54c4.6767578,3.668457,9.7573242,12.2265625,12,15
	c-5.3823242,10.9511719-15.7421875,16.9238281-22,27c21.4086914,0.6875,42.4277344-8.3730469,61-4
	c-0.3383789-16.3896484-7.1162109-42.5942383-5-68c-6.2070313,2.6630859-17.7114258,22.4560547-28,12
	c6.1108398-19.8808594,23.6611328-32.128418,31-50c2.5097656-6.1123047,2.1235352-14.5844727,9-19
	c12.7324219,22.2719727-1.5952148,61.796875,1,96c1.4785156,19.4873047,7.355957,34.3193359,9,48
	c-6.2216797,3.6064453-14.6108398,0.4589844-23,1c-20.0288086,1.2919922-45.4946289,3.1132813-63,9
	c-6.9194336,2.3271484-12.090332,8.0917969-19,6C12.5209961,281.8544922,14.4243164,281.0908203,15,279z M44,220
	c-0.8505859-0.1835938-0.9433594,0.3901367-1,1c-1.4536133,0.6147461,0.1015625,1.2084961,0,0
	C43.8505859,221.1835938,43.9433594,220.6098633,44,220C45.4536133,219.3852539,43.8984375,218.7915039,44,220z M43,241
	c-4.4580078,1.2089844-6.0986328,5.234375-8,9c-0.9726563,0.0273438-0.7758789,1.2236328-1,2
	c-0.8505859-0.1835938-0.9433594,0.3896484-1,1c-1.4536133,0.6152344,0.1015625,1.2089844,0,0
	c0.8505859,0.1835938,0.9433594-0.3896484,1-1c0.9726563-0.0273438,0.7758789-1.2236328,1-2
	C38.6484375,247.9814453,40.409668,244.0761719,43,241c3.9370117-3.7294922,8.7265625-6.6064453,11-12
	C48.5820313,231.2490234,45.5576172,235.890625,43,241z M42,270C42.6547852,270.6552734,41.5805664,269.5810547,42,270L42,270z
	 M38,271C38.6547852,271.6552734,37.5805664,270.5810547,38,271L38,271z M35,271c-0.7758789,0.2236328-1.9726563,0.0273438-2,1
	C33.7758789,271.7763672,34.9726563,271.9726563,35,271z M29,273c-0.7758789,0.2236328-1.9726563,0.0273438-2,1
	C27.7758789,273.7763672,28.9726563,273.9726563,29,273z"/>
<path fill="#212121" fill-rule="evenodd" clip-rule="evenodd" d="M230,168c-0.8408203,2.4921875-1.309082,5.3574219-1,9
	c0.4223633,0.0380859,1.6088867-1.1611328,1-2c4.2011719,5.7900391,0.4667969,16.2719727,8,22
	c5.8125-2.8544922,10.0410156-7.2919922,17-9c4.1015625,11.1220703-19.6835938,17.1811523-5,26
	c-0.1835938,0.8505859,0.3896484,0.9433594,1,1c15.5791016,3.7944336,25.5566406,28.0507813,10,38
	c0.4101563,1.7050781,1.2900391-0.2099609,3,0c-5.0185547,9.6484375-16.21875,13.1152344-23,21
	c-15.7568359-0.2431641-24.4477539-7.5517578-33-15c-0.3671875-3.0341797,3.2573242-2.0761719,5-3
	c-0.112793-3.5537109-3.6982422-3.6347656-3-8c2.7158203-3.1855469,6.9951172,0.5605469,9-4
	c10.6176758,6.1162109,36.6318359,20.2978516,39,2c1.6523438-12.7675781-16.7285156-15.9755859-23-24
	c-5.9150391,2.4179688-6.7080078,8.4287109-14,6c1.9526367-4.7734375,1.3139648-10.1591797,5-15
	c-3.9545898-5.7124023-7.7895508-11.5439453-9-20c-7.9863281,3.4604492-29.1972656,8.8217773-31-4
	c3.0810547-0.7475586,1.21875,3.4477539,5,2c0.1552734-2.8222656-2.8271484-2.5063477-4-4
	c1.8515625-1.9267578,1.8320313-0.7900391,1-4c2.0756836-0.5908203,3.4091797-1.9243164,4-4
	c14.0371094,1.0400391,28.0234375-2.0126953,37-11C229.3334961,168,229.6665039,168,230,168z M226,179
	C226.6547852,179.6547852,225.5805664,178.5805664,226,179L226,179z M236,197
	C235.8144531,201.4052734,239.9365234,197.2832031,236,197C235.3852539,195.5463867,234.7915039,197.1015625,236,197z M236,214
	C236.6547852,214.6547852,235.5805664,213.5805664,236,214L236,214z M243,221c0.8691406,1.4638672,1.4970703,3.1699219,4,3
	c0,0.3330078,0,0.6669922,0,1c0.8037109,0.5292969,1.6230469,1.0429688,3,1c-0.1835938,0.8505859,0.3896484,0.9433594,1,1
	c-0.1835938,0.8505859,0.3896484,0.9433594,1,1c-0.1835938,0.8505859,0.3896484,0.9433594,1,1
	c0.5595703,1.4404297,1.5595703,2.4404297,3,3c-0.1835938,0.8505859,0.3896484,0.9433594,1,1
	c0.6152344,1.4541016,1.2089844-0.1015625,0,0c0.1835938-0.8505859-0.3896484-0.9433594-1-1
	c0.1816406-2.1816406-0.8183594-3.1816406-3-3c0.1835938-0.8505859-0.3896484-0.9433594-1-1
	c0.1835938-0.8505859-0.3896484-0.9433594-1-1c0.1835938-0.8505859-0.3896484-0.9433594-1-1
	c-0.4365234-1.2304688-1.2792969-2.0537109-3-2C246.1308594,222.5361328,245.5029297,220.8305664,243,221
	c-0.3193359-1.1577148-3.0947266-4.7104492-4-2C240.9873047,219.0126953,240.2714844,221.7285156,243,221z M255,219
	C255.6552734,219.6552734,254.5810547,218.5805664,255,219L255,219z M258,222
	C258.6552734,222.6552734,257.5810547,221.5805664,258,222L258,222z M227,250c0.0273438,0.9726563,1.2241211,0.7763672,2,1
	c0.0273438,0.9726563,1.2241211,0.7763672,2,1c0.6147461,1.4541016,1.2084961-0.1015625,0,0
	c-0.0273438-0.9726563-1.2241211-0.7763672-2-1C228.9726563,250.0273438,227.7758789,250.2236328,227,250
	c-1.0908203-1.0039063-4.9091797-4.296875-6-2C223.0908203,248.5761719,223.8540039,250.4794922,227,250z M221,261
	c-1.4960938,0.0195313-4.090332-3.7148438-5-1C217.4960938,259.9804688,220.090332,263.7148438,221,261z"/>
<path fill="#212121" fill-rule="evenodd" clip-rule="evenodd" d="M164,177c2.2919922,3.4350586,0.9277344,4.3452148,2,9
	c-3.6293945,1.0371094-3.9667969,5.3666992-6,8c-4.8686523,4.9995117-11.2768555-1.0878906-18-1
	c-3.4262695,0.0449219-10.6821289,4.0654297-14-2C126.0913086,171.2885742,147.4399414,175.2016602,164,177z M150,178
	C150.6547852,178.6547852,149.5805664,177.5805664,150,178L150,178z M157,178c-0.7758789,0.2241211-1.9726563,0.0273438-2,1
	C155.7758789,178.7758789,156.9726563,178.9726563,157,178z M132,188c-0.7758789,0.2241211-1.9726563,0.0273438-2,1
	C130.7758789,188.7758789,131.9726563,188.9726563,132,188z"/>
<path fill="#212121" fill-rule="evenodd" clip-rule="evenodd" d="M323,184C321.5458984,184.6147461,323.1015625,185.2084961,323,184
	c8.0839844-6.9833984,23.2666016,1.7089844,21,17c-1.2714844,2.7290039-1.5517578,4.1298828-4,8
	c-1.6953125,2.6806641-9.7939453,12.2055664-16,18c4.4541016,6.6484375,9.5292969,9.0703125,15,9
	c8.5927734-0.109375,10.6103516-8.6650391,16-11c1.1347656-0.4921875,6.0136719,2.8144531,7,0
	c0.9345703,9.5341797-9.9199219,13.4189453-13,22c-20.0664063,13.8271484-43.5878906,3.5400391-45-22
	c-0.7558594-13.6743164,3.5810547-44.7666016,18-44C325.0722656,181.1630859,323.4541016,180.6152344,323,184z M318,213
	c6.6884766-1.3110352,12.0859375-3.9140625,15-9C330.9052734,184.34375,309.7900391,201.0219727,318,213z M327,234
	c0,0.3330078,0,0.6669922,0,1C338.1708984,239.3232422,337.703125,235.4257813,327,234
	C326.7167969,230.0634766,322.5947266,234.1855469,327,234z M338,247c-11.4296875,1.4296875-17.8720703-2.1279297-23-7
	C316.6611328,247.7763672,330.4355469,251.4726563,338,247z"/>
<path fill="#212121" fill-rule="evenodd" clip-rule="evenodd" d="M170,207c3.246582,3.2119141,1.5454102,3.1914063,5,3
	c-3.2485352,21.3515625,4.3745117,42.4335938,18,53c-1.078125,6.4912109-1.2192383,10.7568359-6,17
	c-15.15625-3.1767578-17.6118164-19.0546875-23-32c-6.269043,7.0419922-8.8208008,20.2080078-19,21
	c-19.8710938,1.5449219-24.5839844-36.0351563-17-55c4.5258789-0.140625,4.8837891-4.449707,10-4
	c1.5776367,13.3320313-2.6831055,33.1005859,11,40c11.7709961-5.2294922,9.7666016-24.2333984,14-37
	c1.7592773-1.4379883,2.2792969-0.9174805,2,2C167.0429688,212.7094727,169.8867188,211.2202148,170,207z M180,251
	C181.1582031,254.9511719,181.1582031,247.0488281,180,251L180,251z M189,262
	C189.6547852,262.6552734,188.5805664,261.5810547,189,262L189,262z"/>
<path fill="#212121" fill-rule="evenodd" clip-rule="evenodd" d="M365,284C363.5458984,284.6152344,365.1015625,285.2089844,365,284
	c2.8203125-2.0371094,1.2470703,2.2011719,5,0c-16.3876953,12.6132813-31.3291016,32.0019531-44,45
	c-5.171875-4.3398438,7.0439453-6.3300781,1-12c4.7158203-7.9501953,12.0722656-13.2607422,17-21
	c-42.9990234,9.3642578-96.3457031,19.6601563-145,24c-8.5722656,0.7646484-17.6132813,0.9042969-23-1
	c54.3725586-6.2333984,128.1660156-9.6347656,175-30c-49.7060547,13.0400391-106.7167969,21.8740234-167,27
	c-4.0673828-0.5996094-1.3959961-7.9375-8-6c1.6782227-3.3212891,8.1884766-1.8115234,12-3
	c-1.2407227-4.9511719-8.3535156,2.1875-9-3c6.1860352-1.1474609,13.8139648-0.8525391,20-2
	c-0.1557617,4.1777344-6.8051758,1.8613281-9,4c59.9589844-5.7089844,126.0986328-13.9013672,178-31
	C368.7021484,279.6894531,367.4130859,278.8613281,365,284z M362,287c-0.8505859-0.1835938-0.9433594,0.3896484-1,1
	c-0.6669922,0-1.3330078,0-2,0c0,0.6669922,0,1.3330078,0,2c1.7011719,0.3671875,1.8867188-0.7802734,2-2
	C361.8505859,288.1835938,361.9433594,287.6103516,362,287C363.4541016,286.3847656,361.8984375,285.7910156,362,287z M357,292
	C358.4580078,295.3144531,359.4882813,288.0996094,357,292L357,292z M230,306
	C230.6547852,306.6552734,229.5805664,305.5810547,230,306L230,306z"/>
<path fill="#212121" fill-rule="evenodd" clip-rule="evenodd" d="M276,385c-4.8203125,3.1796875-8.3125,7.6875-10,14
	c-0.8505859-0.1835938-0.9433594,0.3896484-1,1c-1.4541016,0.6152344,0.1015625,1.2089844,0,0
	c0.8505859,0.1835938,0.9433594-0.3896484,1-1C270.5410156,395.5410156,273.6015625,390.6015625,276,385
	c2.6298828,0.2958984,0.7871094-3.8798828,4-3c-3.4697266,10.3574219-10.765625,21.6806641-21,22
	c0.2392578-1.4267578,1.6464844-1.6865234,2-3c-3.1494141-0.4833984-2.2636719,3.0693359-6,2
	c-1.4931641-1.1728516-1.1777344-4.1552734-4-4c6.8173828-6.8496094,10.7734375-16.5605469,19-22
	c0.7451172,3.078125-2.7451172,1.921875-2,5c2.8916016-0.4414063,4.5585938-2.1083984,5-5
	c2.8203125,1.0556641,1.2470703,3.9628906,5,2C278.4833984,382.1494141,274.9306641,381.2636719,276,385z"/>
<path fill="#212121" fill-rule="evenodd" clip-rule="evenodd" d="M250,400c0.0566406-0.6103516,0.1494141-1.1835938,1-1
	C250.9433594,399.6103516,250.8505859,400.1835938,250,400z"/>
</svg>
