<?xml version="1.0" encoding="utf-8"?><svg width="2049" height="2048" viewBox="0 0 2049 2048" xmlns="http://www.w3.org/2000/svg" xmlns:xlink="http://www.w3.org/1999/xlink"><view id="arrow-alt-circle-down" viewBox="1536.4 0 512 512"/><svg viewBox="0 0 512 512" width="512" height="512" x="1536.4" xmlns="http://www.w3.org/2000/svg"><path d="M504 256c0 137-111 248-248 248S8 393 8 256 119 8 256 8s248 111 248 248zM212 140v116h-70.9c-10.7 0-16.1 13-8.5 20.5l114.9 114.3c4.7 4.7 12.2 4.7 16.9 0l114.9-114.3c7.6-7.6 2.2-20.5-8.5-20.5H300V140c0-6.6-5.4-12-12-12h-64c-6.6 0-12 5.4-12 12z"/></svg><view id="arrow-right" viewBox="832 1024 448 512"/><svg viewBox="0 0 448 512" width="448" height="512" x="832" y="1024" xmlns="http://www.w3.org/2000/svg"><path fill="#fff" d="M190.5 66.9l22.2-22.2c9.4-9.4 24.6-9.4 33.9 0L441 239c9.4 9.4 9.4 24.6 0 33.9L246.6 467.3c-9.4 9.4-24.6 9.4-33.9 0l-22.2-22.2c-9.5-9.5-9.3-25 .4-34.3L311.4 296H24c-13.3 0-24-10.7-24-24v-32c0-13.3 10.7-24 24-24h287.4L190.9 101.2c-9.8-9.3-10-24.8-.4-34.3z"/></svg><view id="css3" viewBox="1536.4 1024 512 512"/><svg viewBox="0 0 512 512" width="512" height="512" x="1536.4" y="1024" xmlns="http://www.w3.org/2000/svg"><path fill="#afc5a3" d="M480 32l-64 368-223.3 80L0 400l19.6-94.8h82l-8 40.6L210 390.2l134.1-44.4 18.8-97.1H29.5l16-82h333.7l10.5-52.7H56.3l16.3-82H480z"/></svg><view id="git" viewBox="512 1536 448 512"/><svg viewBox="0 0 448 512" width="448" height="512" x="512" y="1536" xmlns="http://www.w3.org/2000/svg"><path fill="#afc5a3" d="M18.8 221.7c0 25.3 16.2 60 41.5 68.5v1c-18.8 8.3-24 50.6 1 65.8v1C34 367 16 384.3 16 414.2c0 51.5 48.8 65.8 91.5 65.8 52 0 90.7-18.7 90.7-76 0-70.5-101-44.5-101-82.8 0-13.5 7.2-18.7 19.7-21.3 41.5-7.7 67.5-40 67.5-82.2 0-7.3-1.5-14.2-4-21 6.7-1.5 13.2-3.3 19.7-5.5v-50.5c-17.2 6.8-35.7 11.8-54.5 11.8-53.8-31-126.8 1.3-126.8 69.2zm87.7 163.8c17 0 41.2 3 41.2 25 0 21.8-19.5 26.3-37.7 26.3-17.3 0-43.3-2.7-43.3-25.2.1-22.3 22.1-26.1 39.8-26.1zM103.3 256c-22 0-31.3-13-31.3-33.8 0-49.3 61-48.8 61-.5 0 20.3-8 34.3-29.7 34.3zM432 305.5v49c-13.3 7.3-30.5 9.8-45.5 9.8-53.5 0-59.8-42.2-59.8-85.7v-87.7h.5v-1c-7 0-7.3-1.6-24 1v-47.5h24c0-22.3.3-31-1.5-41.2h56.7c-2 13.8-1.5 27.5-1.5 41.2h51v47.5s-19.3-1-51-1V281c0 14.8 3.3 32.8 21.8 32.8 9.8 0 21.3-2.8 29.3-8.3zM286 68.7c0 18.7-14.5 36.2-33.8 36.2-19.8 0-34.5-17.2-34.5-36.2 0-19.3 14.5-36.7 34.5-36.7C272 32 286 50 286 68.7zm-6.2 74.5c-1.8 14.6-1.6 199.8 0 217.8h-55.5c1.6-18.1 1.8-203 0-217.8h55.5z"/></svg><view id="gulp" viewBox="1280.4 0 256 512"/><svg viewBox="0 0 256 512" width="256" height="512" x="1280.4" xmlns="http://www.w3.org/2000/svg"><path fill="#afc5a3" d="M209.8 391.1l-14.1 24.6-4.6 80.2c0 8.9-28.3 16.1-63.1 16.1s-63.1-7.2-63.1-16.1l-5.8-79.4-14.9-25.4c41.2 17.3 126 16.7 165.6 0zm-196-253.3l13.6 125.5c5.9-20 20.8-47 40-55.2 6.3-2.7 12.7-2.7 18.7.9 5.2 3 9.6 9.3 10.1 11.8 1.2 6.5-2 9.1-4.5 9.1-3 0-5.3-4.6-6.8-7.3-4.1-7.3-10.3-7.6-16.9-2.8-6.9 5-12.9 13.4-17.1 20.7-5.1 8.8-9.4 18.5-12 28.2-1.5 5.6-2.9 14.6-.6 19.9 1 2.2 2.5 3.6 4.9 3.6 5 0 12.3-6.6 15.8-10.1 4.5-4.5 10.3-11.5 12.5-16l5.2-15.5c2.6-6.8 9.9-5.6 9.9 0 0 10.2-3.7 13.6-10 34.7-5.8 19.5-7.6 25.8-7.6 25.8-.7 2.8-3.4 7.5-6.3 7.5-1.2 0-2.1-.4-2.6-1.2-1-1.4-.9-5.3-.8-6.3.2-3.2 6.3-22.2 7.3-25.2-2 2.2-4.1 4.4-6.4 6.6-5.4 5.1-14.1 11.8-21.5 11.8-3.4 0-5.6-.9-7.7-2.4l7.6 79.6c2 5 39.2 17.1 88.2 17.1 49.1 0 86.3-12.2 88.2-17.1l10.9-94.6c-5.7 5.2-12.3 11.6-19.6 14.8-5.4 2.3-17.4 3.8-17.4-5.7 0-5.2 9.1-14.8 14.4-21.5 1.4-1.7 4.7-5.9 4.7-8.1 0-2.9-6-2.2-11.7 2.5-3.2 2.7-6.2 6.3-8.7 9.7-4.3 6-6.6 11.2-8.5 15.5-6.2 14.2-4.1 8.6-9.1 22-5 13.3-4.2 11.8-5.2 14-.9 1.9-2.2 3.5-4 4.5-1.9 1-4.5.9-6.1-.3-.9-.6-1.3-1.9-1.3-3.7 0-.9.1-1.8.3-2.7 1.5-6.1 7.8-18.1 15-34.3 1.6-3.7 1-2.6.8-2.3-6.2 6-10.9 8.9-14.4 10.5-5.8 2.6-13 2.6-14.5-4.1-.1-.4-.1-.8-.2-1.2-11.8 9.2-24.3 11.7-20-8.1-4.6 8.2-12.6 14.9-22.4 14.9-4.1 0-7.1-1.4-8.6-5.1-2.3-5.5 1.3-14.9 4.6-23.8 1.7-4.5 4-9.9 7.1-16.2 1.6-3.4 4.2-5.4 7.6-4.5.6.2 1.1.4 1.6.7 2.6 1.8 1.6 4.5.3 7.2-3.8 7.5-7.1 13-9.3 20.8-.9 3.3-2 9 1.5 9 2.4 0 4.7-.8 6.9-2.4 4.6-3.4 8.3-8.5 11.1-13.5 2-3.6 4.4-8.3 5.6-12.3.5-1.7 1.1-3.3 1.8-4.8 1.1-2.5 2.6-5.1 5.2-5.1 1.3 0 2.4.5 3.2 1.5 1.7 2.2 1.3 4.5.4 6.9-2 5.6-4.7 10.6-6.9 16.7-1.3 3.5-2.7 8-2.7 11.7 0 3.4 3.7 2.6 6.8 1.2 2.4-1.1 4.8-2.8 6.8-4.5 1.2-4.9.9-3.8 26.4-68.2 1.3-3.3 3.7-4.7 6.1-4.7 1.2 0 2.2.4 3.2 1.1 1.7 1.3 1.7 4.1 1 6.2-.7 1.9-.6 1.3-4.5 10.5-5.2 12.1-8.6 20.8-13.2 31.9-1.9 4.6-7.7 18.9-8.7 22.3-.6 2.2-1.3 5.8 1 5.8 5.4 0 19.3-13.1 23.1-17 .2-.3.5-.4.9-.6.6-1.9 1.2-3.7 1.7-5.5 1.4-3.8 2.7-8.2 5.3-11.3.8-1 1.7-1.6 2.7-1.6 2.8 0 4.2 1.2 4.2 4 0 1.1-.7 5.1-1.1 6.2 1.4-1.5 2.9-3 4.5-4.5 15-13.9 25.7-6.8 25.7.2 0 7.4-8.9 17.7-13.8 23.4-1.6 1.9-4.9 5.4-5 6.4 0 1.3.9 1.8 2.2 1.8 2 0 6.4-3.5 8-4.7 5-3.9 11.8-9.9 16.6-14.1l14.8-136.8c-30.5 17.1-197.6 17.2-228.3.2zm229.7-8.5c0 21-231.2 21-231.2 0 0-8.8 51.8-15.9 115.6-15.9 9 0 17.8.1 26.3.4l12.6-48.7L228.1.6c1.4-1.4 5.8-.2 9.9 3.5s6.6 7.9 5.3 9.3l-.1.1L185.9 74l-10 40.7c39.9 2.6 67.6 8.1 67.6 14.6zm-69.4 4.6c0-.8-.9-1.5-2.5-2.1l-.2.8c0 1.3-5 2.4-11.1 2.4s-11.1-1.1-11.1-2.4c0-.1 0-.2.1-.3l.2-.7c-1.8.6-3 1.4-3 2.3 0 2.1 6.2 3.7 13.7 3.7 7.7.1 13.9-1.6 13.9-3.7z"/></svg><view id="html5" viewBox="0 1024 384 512"/><svg viewBox="0 0 384 512" width="384" height="512" y="1024" xmlns="http://www.w3.org/2000/svg"><path fill="#afc5a3" d="M0 32l34.9 395.8L191.5 480l157.6-52.2L384 32H0zm308.2 127.9H124.4l4.1 49.4h175.6l-13.6 148.4-97.9 27v.3h-1.1l-98.7-27.3-6-75.8h47.7L138 320l53.5 14.5 53.7-14.5 6-62.2H84.3L71.5 112.2h241.1l-4.4 47.7z"/></svg><view id="js" viewBox="384 1024 448 512"/><svg viewBox="0 0 448 512" width="448" height="512" x="384" y="1024" xmlns="http://www.w3.org/2000/svg"><path fill="#afc5a3" d="M0 32v448h448V32H0zm243.8 349.4c0 43.6-25.6 63.5-62.9 63.5-33.7 0-53.2-17.4-63.2-38.5l34.3-20.7c6.6 11.7 12.6 21.6 27.1 21.6 13.8 0 22.6-5.4 22.6-26.5V237.7h42.1v143.7zm99.6 63.5c-39.1 0-64.4-18.6-76.7-43l34.3-19.8c9 14.7 20.8 25.6 41.5 25.6 17.4 0 28.6-8.7 28.6-20.8 0-14.4-11.4-19.5-30.7-28l-10.5-4.5c-30.4-12.9-50.5-29.2-50.5-63.5 0-31.6 24.1-55.6 61.6-55.6 26.8 0 46 9.3 59.8 33.7L368 290c-7.2-12.9-15-18-27.1-18-12.3 0-20.1 7.8-20.1 18 0 12.6 7.8 17.7 25.9 25.6l10.5 4.5c35.8 15.3 55.9 31 55.9 66.2 0 37.8-29.8 58.6-69.7 58.6z"/></svg><view id="mysql" viewBox="1472 1536 512 512"/><svg viewBox="0 0 512.001 512.001" width="512" height="512" x="1472" y="1536" xmlns="http://www.w3.org/2000/svg"><path fill="#afc5a3" d="M99.281 362.953c-4.294-2.147-8.971-.357-12.881 4.294L62.784 399.45l-23.616-32.203c-3.074-4.4-8.703-5.28-12.882-4.294-4.672 1.103-6.44 6.44-6.44 10.735v85.874c0 6.44 4.294 10.735 10.735 10.735s10.735-4.294 10.735-10.735V405.89l12.88 17.175c4.294 6.44 12.882 6.44 17.175 0l12.881-17.175v53.672c-.001 6.441 4.293 10.735 10.734 10.735 6.44 0 10.735-4.294 10.735-10.735v-85.874c-.001-4.295-2.147-8.588-6.44-10.735zM258.148 382.274c12.881 0 19.132 7.13 21.468 10.735 5.357 8.267 8.827 9.906 14.54 7.764 7.044-2.642 7.422-6.038 6.929-9.91-2.146-17.175-19.322-30.055-42.937-30.055-23.616 0-42.937 15.029-42.937 32.203 0 17.174 12.931 27.371 38.693 31.664l4.244.538c17.175 2.146 21.418 6.129 21.355 11.538-.08 6.788-10.622 12.077-23.502 12.077-12.882 0-19.079-6.92-21.468-10.735-3.933-6.278-6.44-10.735-10.734-10.735-6.44 0-11.909 5.617-10.735 10.735 3.605 16.394 19.322 30.055 42.937 30.055 23.616 0 42.937-15.029 42.937-32.203 0-17.175-12.605-27.609-38.369-31.902l-2.421-.3c-19.322-2.146-21.479-8.002-21.468-10.735.017-4.293 8.587-10.734 21.468-10.734zM481.419 448.827h-32.203v-75.14c0-6.44-4.294-10.735-10.735-10.735-6.44 0-10.735 4.294-10.735 10.735v85.874c0 6.44 4.294 10.735 10.735 10.735h42.937c6.44 0 10.735-4.294 10.735-10.735s-4.293-10.734-10.734-10.734zM404.134 450.973c2.146-4.294 2.281-8.587 2.281-12.881l-.135-42.936h-.001c0-17.175-15.029-32.203-32.203-32.203h-21.468c-17.175 0-32.203 15.029-32.203 32.203v42.937c0 17.175 15.029 32.203 32.203 32.203h21.468c4.294 0 8.587-2.147 12.882-4.294 2.146 2.147 4.797 4.294 9.09 4.294 2.147 0 5.937-2.148 8.085-4.294 4.295-4.296 4.295-10.735.001-15.029zm-19.324-17.174v-.001l-2.146-2.146c-4.294-4.294-10.735-4.294-15.029 0-4.294 4.294-4.294 10.735 0 15.029l2.146 2.147h-17.175c-6.44 0-10.735-4.294-10.735-10.735v-42.937c0-6.44 4.294-10.735 10.735-10.735h21.468c6.44 0 10.735 4.294 10.735 10.735v38.642l.001.001zM185.154 405.891c-3.895-2.807-11.884-1.029-15.029 4.294l-12.882 23.616-12.882-23.616c-2.146-4.294-8.756-6.891-15.029-4.294-4.436 1.837-7.073 8.72-4.294 15.029l19.322 38.643-19.322 38.643c-2.368 4.554.864 10.626 7.349 12.636 4.466 1.384 9.953 2.841 14.123-4.049l42.937-85.874c2.147-4.294.634-11.477-4.293-15.028zM406.781 125.457c-4.047-2.916-10.379-2.779-12.609-.548-33.457 20.074-82.529 31.227-138.292 31.227s-107.064-11.152-138.292-31.227c-6.503-4.483-11.659-1.966-14.219-.122-4.047 2.916-6.709 5.367-4.697 13.334 10.94 43.306 85.829 62.625 159.435 62.625s149.68-19.102 154.544-60.53c.737-6.264-3.311-12.915-5.87-14.759z"/><path fill="#afc5a3" d="M406.781 192.545c-4.047-2.916-10.379-2.779-12.609-.548-33.457 20.074-82.529 31.227-138.292 31.227s-107.064-11.152-138.292-31.227c-6.503-4.483-11.659-1.966-14.219-.122-4.047 2.916-6.709 5.367-4.697 13.334 10.94 43.306 85.829 62.625 159.435 62.625s149.68-19.101 154.544-60.529c.737-6.264-3.311-12.915-5.87-14.76z"/><path fill="#afc5a3" d="M406.781 260.306c-4.047-2.916-10.379-2.779-12.609-.548-33.457 20.074-82.529 31.227-138.292 31.227s-107.064-11.152-138.292-31.227c-6.503-4.483-11.659-1.966-14.219-.122-4.047 2.916-6.709 5.367-4.697 13.334 10.94 43.306 85.829 62.625 159.435 62.625s149.68-19.102 154.544-60.53c.737-6.263-3.311-12.915-5.87-14.759zM255.664 0C179.827 0 99.529 24.536 99.529 66.915c0 42.38 80.298 66.914 156.135 66.914s156.134-24.536 156.134-66.915C411.798 24.534 331.5 0 255.664 0z"/></svg><view id="php" viewBox="640.4 0 640 512"/><svg viewBox="0 0 640 512" width="640" height="512" x="640.4" xmlns="http://www.w3.org/2000/svg"><path fill="#afc5a3" d="M320 104.5c171.4 0 303.2 72.2 303.2 151.5S491.3 407.5 320 407.5c-171.4 0-303.2-72.2-303.2-151.5S148.7 104.5 320 104.5m0-16.8C143.3 87.7 0 163 0 256s143.3 168.3 320 168.3S640 349 640 256 496.7 87.7 320 87.7zM218.2 242.5c-7.9 40.5-35.8 36.3-70.1 36.3l13.7-70.6c38 0 63.8-4.1 56.4 34.3zM97.4 350.3h36.7l8.7-44.8c41.1 0 66.6 3 90.2-19.1 26.1-24 32.9-66.7 14.3-88.1-9.7-11.2-25.3-16.7-46.5-16.7h-70.7L97.4 350.3zm185.7-213.6h36.5l-8.7 44.8c31.5 0 60.7-2.3 74.8 10.7 14.8 13.6 7.7 31-8.3 113.1h-37c15.4-79.4 18.3-86 12.7-92-5.4-5.8-17.7-4.6-47.4-4.6l-18.8 96.6h-36.5l32.7-168.6zM505 242.5c-8 41.1-36.7 36.3-70.1 36.3l13.7-70.6c38.2 0 63.8-4.1 56.4 34.3zM384.2 350.3H421l8.7-44.8c43.2 0 67.1 2.5 90.2-19.1 26.1-24 32.9-66.7 14.3-88.1-9.7-11.2-25.3-16.7-46.5-16.7H417l-32.8 168.7z"/></svg><view id="plus-circle" viewBox="1536.4 512 512 512"/><svg viewBox="0 0 512 512" width="512" height="512" x="1536.4" y="512" xmlns="http://www.w3.org/2000/svg"><path fill="#fff" d="M256 8C119 8 8 119 8 256s111 248 248 248 248-111 248-248S393 8 256 8zm144 276c0 6.6-5.4 12-12 12h-92v92c0 6.6-5.4 12-12 12h-56c-6.6 0-12-5.4-12-12v-92h-92c-6.6 0-12-5.4-12-12v-56c0-6.6 5.4-12 12-12h92v-92c0-6.6 5.4-12 12-12h56c6.6 0 12 5.4 12 12v92h92c6.6 0 12 5.4 12 12v56z"/></svg><view id="sass" viewBox="0 0 640.4 512"/><svg viewBox="0 0 640.4 512" width="640.4" height="512" xmlns="http://www.w3.org/2000/svg"><path fill="#afc5a3" d="M551.1 291.9c-22.4.1-41.8 5.5-58 13.5-5.9-11.9-12-22.3-13-30.1-1.2-9.1-2.5-14.5-1.1-25.3s7.7-26.1 7.6-27.2c-.1-1.1-1.4-6.6-14.3-6.7-12.9-.1-24 2.5-25.3 5.9-1.3 3.4-3.8 11.1-5.3 19.1-2.3 11.7-25.8 53.5-39.1 75.3-4.4-8.5-8.1-16-8.9-22-1.2-9.1-2.5-14.5-1.1-25.3s7.7-26.1 7.6-27.2c-.1-1.1-1.4-6.6-14.3-6.7-12.9-.1-24 2.5-25.3 5.9-1.3 3.4-2.7 11.4-5.3 19.1-2.6 7.7-33.9 77.3-42.1 95.4-4.2 9.2-7.8 16.6-10.4 21.6s-.2.3-.4.9c-2.2 4.3-3.5 6.7-3.5 6.7v.1c-1.7 3.2-3.6 6.1-4.5 6.1-.6 0-1.9-8.4.3-19.9 4.7-24.2 15.8-61.8 15.7-63.1-.1-.7 2.1-7.2-7.3-10.7-9.1-3.3-12.4 2.2-13.2 2.2-.8 0-1.4 2-1.4 2s10.1-42.4-19.4-42.4c-18.4 0-44 20.2-56.6 38.5-7.9 4.3-25 13.6-43 23.5-6.9 3.8-14 7.7-20.7 11.4-.5-.5-.9-1-1.4-1.5-35.8-38.2-101.9-65.2-99.1-116.5 1-18.7 7.5-67.8 127.1-127.4 98-48.8 176.4-35.4 189.9-5.6 19.4 42.5-41.9 121.6-143.7 133-38.8 4.3-59.2-10.7-64.3-16.3-5.3-5.9-6.1-6.2-8.1-5.1-3.3 1.8-1.2 7 0 10.1 3 7.9 15.5 21.9 36.8 28.9 18.7 6.1 64.2 9.5 119.2-11.8C367 196.5 415.1 130.2 401 74.7 386.6 18.3 293.1-.2 204.6 31.2 151.9 49.9 94.9 79.3 53.9 117.6 5.2 163.2-2.6 202.9.6 219.5c11.4 58.9 92.6 97.3 125.1 125.7-1.6.9-3.1 1.7-4.5 2.5-16.3 8.1-78.2 40.5-93.7 74.7-17.5 38.8 2.9 66.6 16.3 70.4 41.8 11.6 84.6-9.3 107.6-43.6s20.2-79.1 9.6-99.5c-.1-.3-.3-.5-.4-.8 4.2-2.5 8.5-5 12.8-7.5 8.3-4.9 16.4-9.4 23.5-13.3-4 10.8-6.9 23.8-8.4 42.6-1.8 22 7.3 50.5 19.1 61.7 5.2 4.9 11.5 5 15.4 5 13.8 0 20-11.4 26.9-25 8.5-16.6 16-35.9 16-35.9s-9.4 52.2 16.3 52.2c9.4 0 18.8-12.1 23-18.3v.1s.2-.4.7-1.2c1-1.5 1.5-2.4 1.5-2.4v-.3c3.8-6.5 12.1-21.4 24.6-46 16.2-31.8 31.7-71.5 31.7-71.5s1.4 9.7 6.2 25.8c2.8 9.5 8.7 19.9 13.4 30-3.8 5.2-6.1 8.2-6.1 8.2s0 .1.1.2c-3 4-6.4 8.3-9.9 12.5-12.8 15.2-28 32.6-30 37.6-2.4 5.9-1.8 10.3 2.8 13.7 3.4 2.6 9.4 3 15.7 2.5 11.5-.8 19.6-3.6 23.5-5.4 6.2-2.2 13.4-5.7 20.2-10.6 12.5-9.2 20.1-22.4 19.4-39.8-.4-9.6-3.5-19.2-7.3-28.2 1.1-1.6 2.3-3.3 3.4-5 19.8-28.9 35.1-60.6 35.1-60.6s1.4 9.7 6.2 25.8c2.4 8.1 7.1 17 11.4 25.7-18.6 15.1-30.1 32.6-34.1 44.1-7.4 21.3-1.6 30.9 9.3 33.1 4.9 1 11.9-1.3 17.1-3.5 6.5-2.2 14.3-5.7 21.6-11.1 12.5-9.2 24.6-22.1 23.8-39.6-.3-7.9-2.5-15.8-5.4-23.4 15.7-6.6 36.1-10.2 62.1-7.2 55.7 6.5 66.6 41.3 64.5 55.8-2.1 14.6-13.8 22.6-17.7 25-3.9 2.4-5.1 3.3-4.8 5.1.5 2.6 2.3 2.5 5.6 1.9 4.6-.8 29.2-11.8 30.3-38.7 1.6-34-31.1-71.4-89-71.1zM121.8 436.6c-18.4 20.1-44.2 27.7-55.3 21.3C54.6 451 59.3 421.4 82 400c13.8-13 31.6-25 43.4-32.4 2.7-1.6 6.6-4 11.4-6.9.8-.5 1.2-.7 1.2-.7.9-.6 1.9-1.1 2.9-1.7 8.3 30.4.3 57.2-19.1 78.3zm134.4-91.4c-6.4 15.7-19.9 55.7-28.1 53.6-7-1.8-11.3-32.3-1.4-62.3 5-15.1 15.6-33.1 21.9-40.1 10.1-11.3 21.2-14.9 23.8-10.4 3.5 5.9-12.2 49.4-16.2 59.2zm111 53c-2.7 1.4-5.2 2.3-6.4 1.6-.9-.5 1.1-2.4 1.1-2.4s13.9-14.9 19.4-21.7c3.2-4 6.9-8.7 10.9-13.9 0 .5.1 1 .1 1.6-.1 17.9-17.3 30-25.1 34.8zm85.6-19.5c-2-1.4-1.7-6.1 5-20.7 2.6-5.7 8.6-15.3 19-24.5 1.2 3.8 1.9 7.4 1.9 10.8-.1 22.5-16.2 30.9-25.9 34.4z"/></svg><view id="search" viewBox="0 1536 512 512"/><svg viewBox="0 0 512 512" width="512" height="512" y="1536" xmlns="http://www.w3.org/2000/svg"><path d="M505 442.7L405.3 343c-4.5-4.5-10.6-7-17-7H372c27.6-35.3 44-79.7 44-128C416 93.1 322.9 0 208 0S0 93.1 0 208s93.1 208 208 208c48.3 0 92.7-16.4 128-44v16.3c0 6.4 2.5 12.5 7 17l99.7 99.7c9.4 9.4 24.6 9.4 33.9 0l28.3-28.3c9.4-9.4 9.4-24.6.1-34zM208 336c-70.7 0-128-57.2-128-128 0-70.7 57.2-128 128-128 70.7 0 128 57.2 128 128 0 70.7-57.2 128-128 128z"/></svg><view id="share-square" viewBox="576 512 576 512"/><svg viewBox="0 0 576 512" width="576" height="512" x="576" y="512" xmlns="http://www.w3.org/2000/svg"><path fill="#a7a7a7" d="M568.482 177.448L424.479 313.433C409.3 327.768 384 317.14 384 295.985v-71.963c-144.575.97-205.566 35.113-164.775 171.353 4.483 14.973-12.846 26.567-25.006 17.33C155.252 383.105 120 326.488 120 269.339c0-143.937 117.599-172.5 264-173.312V24.012c0-21.174 25.317-31.768 40.479-17.448l144.003 135.988c10.02 9.463 10.028 25.425 0 34.896zM384 379.128V448H64V128h50.916a11.99 11.99 0 0 0 8.648-3.693c14.953-15.568 32.237-27.89 51.014-37.676C185.708 80.83 181.584 64 169.033 64H48C21.49 64 0 85.49 0 112v352c0 26.51 21.49 48 48 48h352c26.51 0 48-21.49 48-48v-88.806c0-8.288-8.197-14.066-16.011-11.302a71.83 71.83 0 0 1-34.189 3.377c-7.27-1.046-13.8 4.514-13.8 11.859z"/></svg><view id="wordpress" viewBox="960 1536 512 512"/><svg viewBox="0 0 512 512" width="512" height="512" x="960" y="1536" xmlns="http://www.w3.org/2000/svg"><path fill="#afc5a3" d="M61.7 169.4l101.5 278C92.2 413 43.3 340.2 43.3 256c0-30.9 6.6-60.1 18.4-86.6zm337.9 75.9c0-26.3-9.4-44.5-17.5-58.7-10.8-17.5-20.9-32.4-20.9-49.9 0-19.6 14.8-37.8 35.7-37.8.9 0 1.8.1 2.8.2-37.9-34.7-88.3-55.9-143.7-55.9-74.3 0-139.7 38.1-177.8 95.9 5 .2 9.7.3 13.7.3 22.2 0 56.7-2.7 56.7-2.7 11.5-.7 12.8 16.2 1.4 17.5 0 0-11.5 1.3-24.3 2l77.5 230.4L249.8 247l-33.1-90.8c-11.5-.7-22.3-2-22.3-2-11.5-.7-10.1-18.2 1.3-17.5 0 0 35.1 2.7 56 2.7 22.2 0 56.7-2.7 56.7-2.7 11.5-.7 12.8 16.2 1.4 17.5 0 0-11.5 1.3-24.3 2l76.9 228.7 21.2-70.9c9-29.4 16-50.5 16-68.7zm-139.9 29.3l-63.8 185.5c19.1 5.6 39.2 8.7 60.1 8.7 24.8 0 48.5-4.3 70.6-12.1-.6-.9-1.1-1.9-1.5-2.9l-65.4-179.2zm183-120.7c.9 6.8 1.4 14 1.4 21.9 0 21.6-4 45.8-16.2 76.2l-65 187.9C426.2 403 468.7 334.5 468.7 256c0-37-9.4-71.8-26-102.1zM504 256c0 136.8-111.3 248-248 248C119.2 504 8 392.7 8 256 8 119.2 119.2 8 256 8c136.7 0 248 111.2 248 248zm-11.4 0c0-130.5-106.2-236.6-236.6-236.6C125.5 19.4 19.4 125.5 19.4 256S125.6 492.6 256 492.6c130.5 0 236.6-106.1 236.6-236.6z"/></svg><view id="youtube" viewBox="0 512 576 512"/><svg viewBox="0 0 576 512" width="576" height="512" y="512" xmlns="http://www.w3.org/2000/svg"><path fill="#fff" d="M200 150h200v200H200z"/><path fill="red" d="M549.655 124.083c-6.281-23.65-24.787-42.276-48.284-48.597C458.781 64 288 64 288 64S117.22 64 74.629 75.486c-23.497 6.322-42.003 24.947-48.284 48.597-11.412 42.867-11.412 132.305-11.412 132.305s0 89.438 11.412 132.305c6.281 23.65 24.787 41.5 48.284 47.821C117.22 448 288 448 288 448s170.78 0 213.371-11.486c23.497-6.321 42.003-24.171 48.284-47.821 11.412-42.867 11.412-132.305 11.412-132.305s0-89.438-11.412-132.305zm-317.51 213.508V175.185l142.739 81.205-142.739 81.201z"/></svg></svg>